<?xml version="1.0" standalone="no"?>
<!DOCTYPE svg PUBLIC "-//W3C//DTD SVG 20010904//EN"
 "http://www.w3.org/TR/2001/REC-SVG-20010904/DTD/svg10.dtd">
<svg version="1.0" xmlns="http://www.w3.org/2000/svg"
 width="1280.000000pt" height="853.000000pt" viewBox="0 0 1280.000000 853.000000"
 preserveAspectRatio="xMidYMid meet">
<g transform="translate(0.000000,853.000000) scale(0.100000,-0.100000)"
fill="#000000" stroke="none">
<path d="M4315 7559 c-636 -353 -1189 -921 -1522 -1565 -276 -533 -401 -1014
-436 -1674 l-2 -45 -460 -5 -460 -5 0 -25 0 -25 460 -5 460 -5 2 -60 c40
-1027 420 -1913 1123 -2615 281 -281 569 -495 922 -684 86 -46 115 -57 145
-54 36 3 33 5 -78 61 -364 185 -679 415 -974 711 -479 481 -820 1080 -984
1731 -36 143 -75 353 -91 488 -14 118 -29 397 -22 415 3 10 62 12 266 10 l261
-3 7 -125 c26 -464 127 -861 317 -1255 177 -366 378 -644 673 -930 499 -485
1113 -785 1811 -885 43 -7 154 -17 245 -23 l167 -12 3 -93 3 -93 27 3 c27 3
27 4 32 93 l5 90 166 12 c191 13 329 32 496 68 969 209 1808 875 2237 1776
182 383 277 753 309 1205 l12 169 264 3 264 2 -6 -162 c-50 -1338 -850 -2573
-2067 -3194 -108 -55 -113 -59 -81 -62 27 -3 59 9 135 49 922 478 1621 1332
1906 2326 80 280 123 535 143 848 l12 190 458 3 457 2 0 30 0 30 -457 2 -458
3 -7 100 c-31 450 -86 742 -205 1089 -302 881 -914 1617 -1732 2085 -111 63
-181 88 -181 64 0 -5 30 -24 68 -43 282 -145 601 -376 853 -617 691 -661 1118
-1597 1156 -2531 l6 -152 -264 2 -264 3 -8 100 c-45 602 -182 1052 -461 1523
-227 383 -585 760 -966 1018 -478 325 -1068 525 -1621 550 -180 8 -168 2 -171
82 -3 64 -4 67 -28 67 -24 0 -25 -3 -28 -65 -2 -36 -8 -68 -15 -72 -7 -4 -45
-8 -85 -8 -40 0 -139 -7 -219 -15 -1494 -157 -2694 -1333 -2877 -2820 -9 -71
-20 -182 -24 -245 l-7 -115 -262 -3 -263 -2 0 102 c1 383 120 924 295 1332
196 458 455 838 819 1201 278 277 582 503 893 663 40 20 73 40 73 45 0 22 -68
0 -165 -54z m1819 -125 c14 -5 16 -38 16 -264 0 -293 8 -270 -93 -270 -84 0
-290 -25 -412 -50 -516 -105 -977 -352 -1351 -725 -215 -214 -359 -408 -489
-657 -180 -347 -270 -675 -303 -1103 l-7 -90 -262 -3 -263 -2 0 92 c0 257 77
656 185 952 431 1188 1514 2014 2775 2115 140 11 185 12 204 5z m391 -15 c698
-71 1377 -390 1884 -883 508 -496 825 -1095 940 -1781 25 -149 44 -352 39
-425 l-3 -55 -260 0 -260 0 -8 85 c-25 286 -61 480 -129 690 -261 809 -893
1446 -1698 1714 -238 79 -450 121 -668 132 -59 3 -117 7 -129 10 l-23 4 0 259
c0 142 3 261 8 265 8 8 144 1 307 -15z m-380 -784 l0 -230 -100 -7 c-304 -21
-552 -87 -820 -218 -690 -336 -1144 -996 -1215 -1765 -6 -66 -13 -126 -15
-132 -3 -10 -59 -13 -231 -13 l-227 0 6 128 c26 519 229 1045 570 1476 96 120
289 315 407 409 205 164 508 336 744 422 259 95 634 167 836 161 l45 -1 0
-230z m385 209 c1062 -139 1948 -925 2210 -1963 43 -169 70 -355 73 -489 l2
-117 -226 -3 -226 -2 -7 37 c-3 21 -6 58 -6 82 0 24 -7 91 -16 150 -151 1019
-985 1789 -2014 1859 l-105 7 -3 220 c-1 121 0 226 3 233 6 16 124 11 315 -14z
m-385 -1608 l0 -609 -52 -13 c-152 -39 -256 -139 -298 -286 l-16 -58 -611 0
-611 0 7 103 c20 322 167 663 400 929 207 237 504 418 819 499 100 25 256 48
317 46 l45 -2 0 -609z m320 588 c542 -95 1014 -478 1220 -989 64 -159 123
-430 113 -525 l-3 -35 -609 0 -610 0 -11 46 c-20 75 -56 137 -110 188 -59 56
-112 86 -188 105 l-52 13 -3 599 c-1 330 0 605 3 613 6 16 112 9 250 -15z
m-317 -1396 l-3 -153 -160 0 -160 0 3 30 c13 120 176 275 290 275 l33 0 -3
-152z m179 128 c29 -14 72 -43 97 -66 50 -46 106 -147 106 -192 l0 -28 -160 0
-160 0 0 155 0 155 33 0 c17 0 55 -11 84 -24z m-2830 -391 c32 -527 143 -910
379 -1306 415 -694 1119 -1166 1909 -1279 77 -11 190 -24 250 -28 l110 -7 3
-264 2 -264 -152 6 c-539 22 -1109 208 -1578 518 -690 454 -1172 1136 -1365
1929 -52 216 -85 463 -85 641 l0 99 263 -2 262 -3 2 -40z m510 -100 c62 -691
402 -1271 968 -1652 295 -199 647 -320 1035 -355 l135 -13 3 -227 2 -228 -80
0 c-277 0 -682 95 -978 229 -894 404 -1508 1295 -1549 2249 l-6 142 229 -2
229 -3 12 -140z m1786 70 c20 -78 44 -121 100 -182 52 -56 94 -81 181 -108
l71 -22 3 -605 c2 -486 0 -607 -11 -611 -23 -9 -210 13 -317 37 -637 143
-1131 663 -1241 1304 -10 63 -19 147 -19 188 l0 74 607 -2 607 -3 19 -70z
m352 -95 l0 -165 -37 1 c-51 2 -141 49 -188 100 -63 68 -115 191 -95 224 4 7
58 10 163 8 l157 -3 0 -165z m388 126 c-3 -50 -41 -130 -86 -182 -41 -47 -135
-100 -195 -110 l-42 -7 0 172 0 171 163 -2 162 -3 -2 -39z m1264 -58 c-22
-385 -204 -770 -498 -1053 -231 -222 -528 -373 -834 -425 -95 -16 -201 -25
-243 -21 -10 1 -12 126 -10 608 l3 606 71 22 c151 46 252 155 284 308 l11 57
611 0 611 0 -6 -102z m1021 27 c9 -214 -72 -610 -182 -883 -133 -330 -314
-608 -566 -866 -381 -390 -857 -649 -1384 -751 -149 -29 -290 -45 -396 -45
l-80 0 2 228 3 227 135 12 c292 27 533 94 785 217 449 221 792 565 1006 1011
127 264 187 502 215 848 l6 77 226 -2 227 -3 3 -70z m569 -77 c-8 -193 -37
-389 -87 -594 -143 -581 -423 -1078 -850 -1504 -354 -355 -757 -608 -1227
-770 -294 -102 -664 -170 -924 -170 l-89 0 2 263 3 262 100 7 c508 35 945 179
1345 443 290 193 557 460 758 760 88 132 228 410 281 560 86 242 140 510 157
770 3 61 8 113 11 118 2 4 122 7 265 7 l261 0 -6 -152z"/>
</g>
</svg>
